<?xml version="1.0" encoding="utf-8"?>
<!-- Generator: Adobe Illustrator 25.4.1, SVG Export Plug-In . SVG Version: 6.00 Build 0)  -->
<svg version="1.1" id="Capa_1" xmlns="http://www.w3.org/2000/svg" xmlns:xlink="http://www.w3.org/1999/xlink" x="0px" y="0px"
	 viewBox="0 0 471.7 471.7" style="enable-background:new 0 0 471.7 471.7;" xml:space="preserve">
<g>
	<path d="M1103.5,203c-24.7-24.7-57.4-38.2-92.3-38.2s-67.7,13.6-92.4,38.3L905.9,216l-13.1-13.1c-24.7-24.7-57.6-38.4-92.5-38.4
		c-34.8,0-67.6,13.6-92.2,38.2c-24.7,24.7-38.3,57.5-38.2,92.4c0,34.9,13.7,67.6,38.4,92.3l187.8,187.8c2.6,2.6,6.1,4,9.5,4
		c3.4,0,6.9-1.3,9.5-3.9l188.2-187.5c24.7-24.7,38.3-57.5,38.3-92.4C1141.7,260.5,1128.2,227.7,1103.5,203z M1084.3,368.7
		l-178.7,178L727.3,368.4c-19.6-19.6-30.4-45.6-30.4-73.3s10.7-53.7,30.3-73.2c19.5-19.5,45.5-30.3,73.1-30.3
		c27.7,0,53.8,10.8,73.4,30.4l22.6,22.6c5.3,5.3,13.8,5.3,19.1,0l22.4-22.4c19.6-19.6,45.7-30.4,73.3-30.4s53.6,10.8,73.2,30.3
		c19.6,19.6,30.3,45.6,30.3,73.3C1114.7,323.1,1103.9,349.1,1084.3,368.7z"/>
</g>
<g>
	<path d="M172.9,63.9h127v45.4h27V60.9c0-13.2-10.8-24-24-24H169.9c-13.2,0-24,10.8-24,24v48.4h27V63.9z"/>
	<path d="M394.1,113.3h-67.2h-27h-127h-27H77.6c-13.2,0-24,10.8-24,24v273.5c0,13.2,10.8,24,24,24h316.4c13.2,0,24-10.8,24-24V137.3
		C418.1,124.1,407.3,113.3,394.1,113.3z M391.1,407.8H80.6V140.3h65.3h27h127h27h64.2V407.8z"/>
</g>
<path d="M-671.2,876.9l-68.5-68.5c24.9-27.8,40.1-64.5,40.1-104.7c0-86.6-70.4-157-157-157s-157,70.4-157,157
	c0,86.6,70.4,157,157,157c32.9,0,63.5-10.2,88.8-27.6l70.2,70.2c3.6,3.6,8.4,5.5,13.2,5.5c4.8,0,9.5-1.8,13.2-5.5
	C-663.9,896-663.9,884.2-671.2,876.9z M-976.3,703.7c0-66,53.7-119.7,119.7-119.7c66,0,119.7,53.7,119.7,119.7
	s-53.7,119.7-119.7,119.7C-922.6,823.4-976.3,769.7-976.3,703.7z"/>
</svg>
